<svg xmlns="http://www.w3.org/2000/svg" fill="currentColor" viewBox="0 0 968 177"><path d="m941 79-3-8h2l8 5c3 6 5 26 6 34l-11-7zm-20-19q-9-9-15-19c3-6 5-20 3-26 0-2-5-8-6-9q-3-4-7-6h-1l1 5-18 13v5l3 2 12-2-7 11-9 6-10-3h-2l-8 9-1 1v13l3 10 5-7-2-6v-8l5-3 13 9 7 11 20 13 2 11 16 16-9 12q-6 4-6 10h11l1-7 13-14v-3l-4-12q4-4 6-14c0-12-12-15-16-18m-60-24-10 3-6 3q-4 2-5 5l9 2 4-5 2-1 7-7zm41 75 13-12 5 5-13 12-3 5h-10q3-7 8-10m66 25H837v-4h131zM601 75q0-13-10-15-10 2-9 15v53h8v8h-45v-8h8V55h-8v-8h35v13h1c3-7 11-15 23-15q20 1 24 18l1 15v50h11v8h-39zm-182 0q1-13-9-15-10 2-10 15v53h8v8h-45v-8h8V55h-8v-8h35v13h1c3-7 11-15 23-15q21 1 24 18l1 15v50h11v8h-39zm259-20v66q1 6 6 6l5-1v8q0 2-17 3-22 0-23-21V55h-9v-6l33-27h5v25h14v8zM119 0l32 33v8a71 71 0 0 0-47-18c-40 0-65 31-65 68 0 38 24 68 65 68 21 0 38-10 47-20v8q-21 28-64 29c-52 0-87-37-87-85C0 44 39 7 87 7q18 0 32 5zm413 112q-7 8-20 9c-8 0-21-5-21-26h47l1-6c0-25-11-44-38-44s-41 21-41 46c0 26 14 47 41 47q27-1 35-21zm-41-26q-2-33 9-32 12-1 10 32zM96 91q-1-40 12-39 12-1 11 39 1 40-11 39-13 1-12-39m-33 0c0 27 16 49 45 49 28 0 45-22 45-49s-17-49-45-49c-29 0-45 22-45 49m153-16q1-14-9-15-10 2-10 15v53h8v8h-45v-8h9V55h-9v-8h35v13h1c3-7 11-15 23-15q21 2 24 18l1 15v50h11v8h-39zm100-52q1 12 18 13 16-1 17-13-1-12-17-13-17 0-18 13m-23 32v66q1 6 6 6l5-1v8q1 1-17 3-21 0-22-21V55h-10v-6l33-27h5v25h11v8zm523 73h11v8h-39V22h-10v-9h38zm-76-36q0-2-6-2-11 2-10 17-1 14 10 15 5 0 6-3zm2 33q-7 12-23 13c-14 0-23-13-23-28q1-28 33-29l12 2v-6q0-16-16-16c-14 0-21 10-21 10l-5-6q15-20 36-20 34 2 35 32v51h9v8h-36zm-431 11v-8h8V55h-8v-8h36v81h9v8"/></svg>